<svg xmlns="http://www.w3.org/2000/svg" xmlns:xlink="http://www.w3.org/1999/xlink" xml:space="preserve" version="1.1" style="shape-rendering:geometricPrecision;text-rendering:geometricPrecision;image-rendering:optimizeQuality;" viewBox="0 0 461.34 523.925" x="0px" y="0px" fill-rule="evenodd" clip-rule="evenodd"><defs><style type="text/css">
   
    .fil0 {fill:black}
   
  </style></defs><g><path class="fil0" d="M235.18 1.74l223.9 201.09c4.61,4.14 1.68,11.77 -4.51,11.77l-42.83 0 0 197.8c0,3.71 -3.03,6.75 -6.75,6.75l-104.04 0c-3.71,0 -6.75,-3.04 -6.75,-6.75l0 -86.58c0,-34.95 -28.59,-63.54 -63.53,-63.54 -34.95,0 -63.54,28.59 -63.54,63.54l0 86.58c0,3.71 -3.04,6.75 -6.75,6.75l-104.04 0c-3.72,0 -6.75,-3.04 -6.75,-6.75l0 -197.8 -42.83 0c-6.19,0 -9.12,-7.63 -4.51,-11.77l68.09 -61.15 0 -76.47c0,-6.5 5.31,-11.81 11.81,-11.81l37.99 0c6.5,0 11.81,5.31 11.81,11.81l0 21.14 94.21 -84.61c2.57,-2.31 6.44,-2.31 9.02,0z"/></g><text x="0" y="434.14" fill="#000000" font-size="5px" font-weight="bold" font-family="'Helvetica Neue', Helvetica, Arial-Unicode, Arial, Sans-serif">Created by Humantech</text><text x="0" y="439.14" fill="#000000" font-size="5px" font-weight="bold" font-family="'Helvetica Neue', Helvetica, Arial-Unicode, Arial, Sans-serif">from the Noun Project</text></svg>