<svg xmlns="http://www.w3.org/2000/svg" xmlns:xlink="http://www.w3.org/1999/xlink" version="1.1" x="0px" y="0px" viewBox="0 0 512 640" style="enable-background:new 0 0 512 512;" xml:space="preserve"><g><path d="M428.5,285H422v-67.1c0-92.7-74.4-168-166-168s-166,75.4-166,168V285h-6.5c-27,0-49.5,21.8-49.5,49v78.7   C34,440,56.5,462,83.5,462h53.1c6.6,0,12.4-5.2,12.4-11.9V296.6c0-6.6-5.8-11.6-12.4-11.6H114v-67.1c0-79.4,63.7-144,142-144   s142,64.6,142,144V285h-22.6c-6.6,0-12.4,5-12.4,11.6v153.5c0,6.6,5.8,11.9,12.4,11.9h53.1c27,0,48.5-22,48.5-49.3V334   C477,306.8,455.5,285,428.5,285z"/></g><text x="0" y="527" fill="#000000" font-size="5px" font-weight="bold" font-family="'Helvetica Neue', Helvetica, Arial-Unicode, Arial, Sans-serif">Created by Ranjit</text><text x="0" y="532" fill="#000000" font-size="5px" font-weight="bold" font-family="'Helvetica Neue', Helvetica, Arial-Unicode, Arial, Sans-serif">from the Noun Project</text></svg>