<svg xmlns="http://www.w3.org/2000/svg" xmlns:xlink="http://www.w3.org/1999/xlink" version="1.1" x="0px" y="0px" viewBox="0 0 100 125" enable-background="new 0 0 100 100" xml:space="preserve"><g><path d="M49.2,75.1h0.9c0.4,0,0.6,0.3,0.6,0.6v5.1c0,0.4-0.3,0.6-0.6,0.6h-0.9v9.8c7.2-0.1,13.2-1.3,18-2.9l0.4-10L67,78.7   c-0.4,0.1-0.8-0.2-0.8-0.6l0.3-5.4c0-0.3,0.2-0.5,0.5-0.6l1-0.3l0.4-8.8c-5,1.5-11.3,2.6-19.1,2.7V75.1z"/><path d="M27.6,71.7l1,0.3c0.3,0.1,0.5,0.3,0.5,0.6l0.3,5.4c0,0.4-0.4,0.7-0.8,0.6l-0.7-0.2l0.4,9.3c5,2,11.4,3.5,19.2,3.6v-9.8   h-0.9c-0.4,0-0.6-0.3-0.6-0.6v-5.1c0-0.4,0.3-0.6,0.6-0.6h0.9v-9.5c-8.4-0.1-15.1-1.3-20.3-3L27.6,71.7z"/><path d="M25.2,77.9c-0.3-0.1-0.5-0.3-0.5-0.6l-0.2-5.5c0-0.4,0.4-0.7,0.8-0.6l0.6,0.2l-0.4-9.2c-10.4-3.8-14.1-9.2-14.1-9.2   l1.5,22.7c0.1,1.4,0.7,2.7,1.7,3.6c2,2,5.9,5.3,12.1,8l-0.4-9L25.2,77.9z"/><path d="M70,62.4l-0.4,8.9l0.6-0.2c0.4-0.1,0.8,0.2,0.8,0.6l-0.2,5.5c0,0.3-0.2,0.5-0.5,0.6l-1.1,0.2l-0.4,9.8   c6.5-2.4,10.8-5.5,13-7.4c1.2-1,1.9-2.4,1.9-3.9l1.3-23.7C85.1,52.9,81.2,58.6,70,62.4z"/><path d="M92.8,16.1h-38c-2.5,0-5.1,0.2-7.6,0.7l-0.9,0.2c-0.4-0.6-1.2-1.1-2-1.1c-1.4,0-2.4,1.1-2.4,2.4c0,1.4,1.1,2.4,2.4,2.4   c0.8,0,1.6-0.4,2-1.1l0.9,0.2c2.5,0.5,5,0.7,7.6,0.7h38c1.2,0,2.2-1,2.2-2.2C95,17.1,94,16.1,92.8,16.1z"/><path d="M38.4,44.2l0.8,0.5c-0.1,0.8,0.1,1.6,0.7,2.2c0.5,0.5,1.1,0.7,1.7,0.7s1.3-0.2,1.7-0.7c1-1,1-2.5,0-3.5   c-0.5-0.5-1.1-0.7-1.7-0.7c-0.1,0-0.3,0-0.4,0L40.6,42c-1.4-2.1-3.1-4-4.9-5.8L8.8,9.3c-0.4-0.4-1-0.7-1.6-0.7   c-0.6,0-1.2,0.2-1.6,0.7c-0.9,0.9-0.9,2.3,0,3.2l26.9,26.9C34.3,41.1,36.3,42.8,38.4,44.2z"/><path d="M48.3,28.1c-5.6,0-10.9,0.6-15.7,1.6l4.6,4.6c3.2-0.5,6.9-0.8,11-0.8c20.4,0,29.6,7.4,32.6,10.4c0.7,0.8,0.8,1.9,0.2,2.8   c-2.4,3.5-10.6,12.1-32.8,12.1c-22.3,0-30.3-8.6-32.7-12.1c-0.6-0.9-0.5-2,0.2-2.7c1.6-1.7,5-4.6,11.1-7l-4.2-4.2   c-7,3.1-11.4,7.5-11.4,12.4c0,9.5,16.5,17.2,36.9,17.2c20.4,0,36.9-7.7,36.9-17.2C85.1,35.8,68.6,28.1,48.3,28.1z"/></g></svg>