<svg xmlns="http://www.w3.org/2000/svg" xmlns:xlink="http://www.w3.org/1999/xlink" xml:space="preserve" version="1.1" style="shape-rendering:geometricPrecision;text-rendering:geometricPrecision;image-rendering:optimizeQuality;" viewBox="0 0 463 578.75" x="0px" y="0px" fill-rule="evenodd" clip-rule="evenodd"><defs><style type="text/css">
   
    .fil0 {fill:black;fill-rule:nonzero}
   
  </style></defs><g><path class="fil0" d="M55 0l353 0c15,0 29,6 39,16 10,10 16,24 16,39l0 353c0,15 -6,29 -16,39 -10,10 -24,16 -39,16l-91 0 -1 0 -1 0 -167 0 -1 0 -1 0 -91 0c-15,0 -29,-6 -39,-16 -10,-10 -16,-24 -16,-39l0 -353c0,-15 6,-29 16,-39 10,-10 24,-16 39,-16zm321 42c1,2 1,3 1,5l0 159c0,14 -12,25 -26,25l-14 0 0 190 71 0c4,0 7,-2 9,-4 2,-2 4,-5 4,-9l0 -353c0,-4 -2,-7 -4,-9 -2,-2 -5,-4 -9,-4l-32 0zm-81 189l-13 0c-15,0 -26,-11 -26,-25l0 -159c0,-2 0,-3 0,-5l-49 0c0,2 0,3 0,5l0 159c0,14 -11,25 -25,25l-14 0 0 190 127 0 0 -190zm-169 0l-14 0c-14,0 -26,-11 -26,-25l0 -159c0,-2 1,-3 1,-5l-32 0c-4,0 -7,2 -9,4 -2,2 -4,5 -4,9l0 353c0,4 2,7 4,9 2,2 5,4 9,4l71 0 0 -190z"/></g><text x="0" y="478" fill="#000000" font-size="5px" font-weight="bold" font-family="'Helvetica Neue', Helvetica, Arial-Unicode, Arial, Sans-serif">Created by Bismillah</text><text x="0" y="483" fill="#000000" font-size="5px" font-weight="bold" font-family="'Helvetica Neue', Helvetica, Arial-Unicode, Arial, Sans-serif">from the Noun Project</text></svg>