<svg xmlns="http://www.w3.org/2000/svg" xmlns:xlink="http://www.w3.org/1999/xlink" version="1.1" x="0px" y="0px" viewBox="0 0 141.7 177.125" style="enable-background:new 0 0 141.7 141.7;" xml:space="preserve"><path d="M73.4,115.1c0.2-5.1,3.3-9.8,8.2-11.1c3.6-1,6.9-2.9,9.6-5.6c7.6-7.6,8.4-19.8,3.2-31c-1.5-3.2-0.7-6.9,1.8-9.4l16.1-16.1  c1.7-1.7,4.5-1.7,6.2,0l0,0c1.7,1.7,4.5,1.7,6.2,0l16.3-23.4c0.9-1.3,0.8-3.2-0.4-4.3L127.6,1c-1.2-1.2-3-1.3-4.3-0.4L99.9,16.9  c-1.7,1.7-1.7,4.5,0,6.2l0,0c1.7,1.7,1.7,4.5,0,6.2L83.7,45.5c-2.5,2.5-6.2,3.3-9.4,1.8c-11.2-5.2-23.4-4.4-31,3.2  c-2.7,2.7-4.5,6-5.6,9.6c-1.4,4.9-6.1,8-11.1,8.2c-7.2,0.3-13.8,2.9-18.7,7.8c-12.6,12.6-9.8,35.7,6.1,51.6  c15.9,15.9,39,18.7,51.6,6.1C70.6,128.9,73.1,122.3,73.4,115.1z M54.6,70.3c4.9-7.2,15.3-7.2,20.2,0c2.7,4,2.7,9.5,0,13.5  c-4.9,7.2-15.3,7.2-20.2,0C51.9,79.8,51.9,74.3,54.6,70.3z"/></svg>